<?xml version="1.0" encoding="utf-8"?>
<!-- Generator: Adobe Illustrator 16.0.0, SVG Export Plug-In . SVG Version: 6.00 Build 0)  -->
<!DOCTYPE svg PUBLIC "-//W3C//DTD SVG 1.1//EN" "http://www.w3.org/Graphics/SVG/1.1/DTD/svg11.dtd">
<svg version="1.1" id="Capa_1" xmlns="http://www.w3.org/2000/svg" xmlns:xlink="http://www.w3.org/1999/xlink" x="0px" y="0px"
	 width="32px" height="32px" viewBox="0 0 32 32" enable-background="new 0 0 32 32" xml:space="preserve">
<g>
	<g>
		<path fill="#FFD561" d="M18.396,23.519l-4.949,4.94c-0.06,0.05-0.41,0.329-0.76,0.329c-0.08,0-0.32,0-0.66-0.329l-0.7-0.711
			l3.12-3.119l-0.71-0.71l-3.12,3.119l-2.83-2.829l4.54-4.53l-0.71-0.71l-4.53,4.54l-0.71-0.71l3.12-3.12l-0.71-0.71l-3.12,3.12
			l-0.71-0.7c-0.57-0.57-0.31-1.09,0-1.42l4.95-4.94L18.396,23.519z"/>
	</g>
	<g>
		<path fill="#FFA28D" d="M26.19,10.05c-2.671,2.67-5.37,4.04-5.4,4.06l-0.29,0.15l-0.76-0.76l0.149-0.29
			c0.021-0.03,1.38-2.72,4.061-5.4c0.649-0.65,1.31-0.97,2.02-0.97c0.36,0,0.71,0.08,1.011,0.2C27.28,7.84,27.31,8.93,26.19,10.05z"
			/>
	</g>
	<g>
		
			<rect x="14.881" y="13.536" transform="matrix(0.7071 -0.7071 0.7071 0.7071 -8.1637 16.5411)" fill="#BCBCBC" width="2.008" height="9.178"/>
	</g>
	<g>
		<path fill="#BCBCBC" d="M21.95,18.57l-1.41,1.42l-5.49-5.49l1.41-1.42c0.34-0.34,0.58-0.34,0.66-0.34c0.29,0,0.59,0.19,0.72,0.3
			l4.101,4.1C22.26,17.48,22.52,18,21.95,18.57z"/>
	</g>
	<g>
		<path fill="#BCBCBC" d="M21.95,18.57l-1.41,1.42l-5.49-5.49l1.41-1.42c0.34-0.34,0.58-0.34,0.66-0.34c0.29,0,0.59,0.19,0.72,0.3
			l4.101,4.1C22.26,17.48,22.52,18,21.95,18.57z"/>
	</g>
</g>
<g>
	<circle fill="#2D2220" cx="18.5" cy="15.5" r="0.5"/>
</g>
<g>
	<circle fill="#2D2220" cx="19.5" cy="16.5" r="0.5"/>
</g>
<g>
	<circle fill="#2D2220" cx="20.5" cy="17.5" r="0.5"/>
</g>
<g>
	<path fill="#2D2220" d="M26.9,5.1c0,0-1.261-1.26-2.931-1.26c-0.84,0-1.779,0.32-2.729,1.26C18.41,7.93,17,10.76,17,10.76
		l-1.42-1.42c0,0-0.62-0.63-1.46-0.63c-0.42,0-0.89,0.16-1.36,0.63l-9.19,9.2c0,0-1.42,1.41,0,2.82l0.7,0.71L7.1,24.9l2.12,2.119
		l0.71,0.711l0.71,0.71c0.47,0.47,0.94,0.619,1.36,0.619c0.84,0,1.46-0.619,1.46-0.619l9.2-9.2c1.41-1.41,0-2.83,0-2.83l-0.71-0.7
		L21.24,15c0,0,2.83-1.41,5.66-4.24C29.73,7.93,26.9,5.1,26.9,5.1z M12.76,27.73C12.7,27.78,12.35,28.06,12,28.06
		c-0.08,0-0.32,0-0.66-0.329l-0.7-0.711l2.12-2.119l-0.71-0.71L9.93,26.31L7.1,23.48l3.54-3.53l-0.71-0.71L6.4,22.78l-0.71-0.71
		l2.12-2.12L7.1,19.24l-2.12,2.12l-0.71-0.7c-0.57-0.57-0.31-1.09,0-1.42l4.95-4.94l8.49,8.49L12.76,27.73z M18.42,22.08l-6.49-6.49
		l-2-2l1.42-1.42l2,2l6.49,6.49L18.42,22.08z M21.94,17.11c0.14,0.149,0.279,0.34,0.319,0.55c0.03,0.109,0.04,0.229,0.01,0.35
		c-0.039,0.17-0.14,0.351-0.319,0.53l-1.41,1.42l-5.48-5.48l-1.01-1.01l-2-2l1.41-1.42c0.34-0.34,0.58-0.34,0.66-0.34
		c0.33,0,0.67,0.25,0.76,0.34L21.94,17.11z M20.79,14.11l-0.29,0.15l-1.03-1.03l0.88-0.88c0.2-0.19,0.2-0.51,0-0.7
		c-0.189-0.2-0.51-0.2-0.699,0l-0.881,0.88L17.74,11.5l0.149-0.29c0.021-0.03,1.38-2.72,4.061-5.4c0.649-0.65,1.31-0.97,2.02-0.97
		c1.221,0,2.221,0.96,2.221,0.97c0.1,0.1,0.54,0.56,0.79,1.23c0,0.01,0,0.01,0.01,0.02c0.02,0.06,0.04,0.13,0.06,0.2
		c0.01,0.01,0.01,0.02,0.01,0.03c0.03,0.09,0.051,0.18,0.061,0.27c0.03,0.13,0.04,0.28,0.04,0.42c0,0.63-0.25,1.35-0.97,2.07
		C23.52,12.72,20.82,14.09,20.79,14.11z"/>
</g>
<g>
	<path fill="#2D2220" d="M23,9.5c-0.128,0-0.256-0.049-0.354-0.146c-0.195-0.195-0.195-0.512,0-0.707l2-2
		c0.195-0.195,0.512-0.195,0.707,0s0.195,0.512,0,0.707l-2,2C23.256,9.451,23.128,9.5,23,9.5z"/>
</g>
</svg>
