<?xml version="1.0" encoding="utf-8"?>
<!-- Generator: Adobe Illustrator 16.0.0, SVG Export Plug-In . SVG Version: 6.00 Build 0)  -->
<!DOCTYPE svg PUBLIC "-//W3C//DTD SVG 1.1//EN" "http://www.w3.org/Graphics/SVG/1.1/DTD/svg11.dtd">
<svg version="1.1" id="Capa_1" xmlns="http://www.w3.org/2000/svg" xmlns:xlink="http://www.w3.org/1999/xlink" x="0px" y="0px"
	 width="32px" height="32px" viewBox="0 0 32 32" enable-background="new 0 0 32 32" xml:space="preserve">
<path fill="#2D2220" d="M2,6v20h28V6H2z M29,25H3V7h26V25z"/>
<path fill="#5FFFBA" d="M5,8v2h5v1H7v3H5v11h24V8H5z M13,14h-3v3H9v-4h4V14z M20,19h-3v3h-1v-4h4V19z M26,11h-6v6h-1v-7h7V11z"/>
<path fill="#2D2220" d="M11,12V9H5v6h3v3h6v-6H11z M8,14H6v-4h4v2H8V14z M13,17H9v-4h4V17z"/>
<rect x="10" y="14" fill="#2D2220" width="3" height="3"/>
<polygon fill="#2D2220" points="10,11 10,12 8,12 8,14 7,14 7,11 "/>
<rect x="10" y="14" fill="#FFD561" width="3" height="3"/>
<polygon fill="#FFA28D" points="10,11 10,12 8,12 8,14 7,14 7,11 "/>
<path fill="#2D2220" d="M18,9v8h-3v6h6v-2h6V9H18z M20,22h-4v-4h4V22z M26,20h-5v-3h-2v-7h7V20z"/>
<rect x="17" y="19" fill="#FFA28D" width="3" height="3"/>
<polygon fill="#FFD561" points="26,11 26,20 21,20 21,17 20,17 20,11 "/>
</svg>
