<?xml version="1.0" encoding="utf-8"?>
<!-- Generator: Adobe Illustrator 16.0.0, SVG Export Plug-In . SVG Version: 6.00 Build 0)  -->
<!DOCTYPE svg PUBLIC "-//W3C//DTD SVG 1.1//EN" "http://www.w3.org/Graphics/SVG/1.1/DTD/svg11.dtd">
<svg version="1.1" id="Capa_1" xmlns="http://www.w3.org/2000/svg" xmlns:xlink="http://www.w3.org/1999/xlink" x="0px" y="0px"
	 width="32px" height="32px" viewBox="0 0 32 32" enable-background="new 0 0 32 32" xml:space="preserve">
<path fill="#31CFFF" d="M28.01,11.98c0,0.56-0.45,1.01-1.01,1.01s-1.01-0.45-1.01-1.01c0-0.55,0.45-1,1.01-1
	S28.01,11.43,28.01,11.98z"/>
<path fill="#2D2220" d="M19,13.03v1.03c1.13,0.23,1.99,1.24,1.99,2.44c0,1.37-1.12,2.49-2.49,2.49c-1.2,0-2.21-0.86-2.44-1.99h-1.03
	c0,0.07,0.02,0.14,0.03,0.21c0.33,1.6,1.74,2.8,3.44,2.8c1.94,0,3.51-1.569,3.51-3.51C22.01,14.73,20.7,13.27,19,13.03z M18,14.06
	v-1.04c-1.47,0.21-2.64,1.33-2.94,2.77c-0.01,0.07-0.03,0.14-0.03,0.21h1.03C16.26,15.03,17.03,14.26,18,14.06z"/>
<path fill="#31CFFF" d="M20.99,16.5c0,1.2-0.86,2.21-1.99,2.44c-1.13-0.23-1.99-1.24-1.99-2.44s0.86-2.21,1.99-2.44
	C20.13,14.29,20.99,15.3,20.99,16.5z"/>
<rect x="6" y="6" fill="#2D2220" width="5" height="1"/>
<path fill="#2D2220" d="M19,10.02v1.02c2.81,0.25,4.99,2.6,4.99,5.46c0,3.03-2.46,5.49-5.49,5.49c-2.86,0-5.21-2.19-5.46-4.99h-1.02
	c0.25,3.36,3.06,6,6.48,6c3.59,0,6.5-2.91,6.5-6.5C25,13.08,22.36,10.27,19,10.02z M18,11.04v-1.02c-3.19,0.24-5.74,2.79-5.98,5.98
	h1.02C13.27,13.37,15.36,11.27,18,11.04z"/>
<path fill="#5FFFBA" d="M18.5,11.01c-3.04,0-5.49,2.46-5.49,5.49c0,3.03,2.46,5.49,5.49,5.49c3.03,0,5.49-2.46,5.49-5.49
	C23.99,13.47,21.54,11.01,18.5,11.01z M18.5,20.99c-2.48,0-4.49-2.01-4.49-4.49c0-2.48,2.01-4.49,4.49-4.49
	c2.48,0,4.49,2.01,4.49,4.49C22.99,18.98,20.98,20.99,18.5,20.99z"/>
<path fill="#2D2220" d="M29,18v-8c0-1.1-0.9-2-2-2H5c-1.1,0-2,0.9-2,2v13c0,1.1,0.9,2,2,2h22c1.1,0,2-0.9,2-2h-1c0,0.55-0.45,1-1,1
	H5c-0.55,0-1-0.45-1-1V10c0-0.55,0.45-1,1-1h22c0.55,0,1,0.45,1,1v8H29z"/>
<path fill="#2D2220" d="M27.01,10.98c0,0.56-0.45,1.01-1.01,1.01s-1.01-0.45-1.01-1.01c0-0.55,0.45-1,1.01-1
	S27.01,10.43,27.01,10.98z"/>
<polygon fill="#2D2220" points="11,10 11,14 8,14 8,13 10,13 10,11 6,11 6,10 "/>
<rect x="6" y="13" fill="#2D2220" width="1" height="1"/>
<rect x="6" y="11" fill="#5FFFBA" width="4" height="2"/>
<path fill="#2D2220" d="M30,21.5c0,0.28-0.22,0.5-0.5,0.5h-2c-0.28,0-0.5-0.22-0.5-0.5s0.22-0.5,0.5-0.5h2
	C29.78,21,30,21.22,30,21.5z"/>
<path fill="#2D2220" d="M30,19.5c0,0.28-0.22,0.5-0.5,0.5h-2c-0.28,0-0.5-0.22-0.5-0.5s0.22-0.5,0.5-0.5h2
	C29.78,19,30,19.22,30,19.5z"/>
</svg>
