<?xml version="1.0" encoding="utf-8"?>
<!-- Generator: Adobe Illustrator 16.0.0, SVG Export Plug-In . SVG Version: 6.00 Build 0)  -->
<!DOCTYPE svg PUBLIC "-//W3C//DTD SVG 1.1//EN" "http://www.w3.org/Graphics/SVG/1.1/DTD/svg11.dtd">
<svg version="1.1" id="Capa_1" xmlns="http://www.w3.org/2000/svg" xmlns:xlink="http://www.w3.org/1999/xlink" x="0px" y="0px"
	 width="32px" height="32px" viewBox="0 0 32 32" enable-background="new 0 0 32 32" xml:space="preserve">
<g>
	<polygon fill="#31CFFF" points="18.24,18 12.24,24 10,24 10,20.76 12.76,18 	"/>
	<path fill="#E371FF" d="M26.09,10.15l-2.82,2.83l1.41,1.42l-1.41,1.41l-5.079-5.07l1.42-1.42l1.409,1.42l2.83-2.83
		c0.591-0.58,1.181-0.19,1.36-0.05c0.04,0.03,0.06,0.05,0.06,0.05s0.16,0.16,0.4,0.41c0.04,0.04,0.08,0.08,0.13,0.13
		c0.04,0.04,0.09,0.09,0.141,0.14C26,8.64,26.05,8.7,26.09,8.74C26.8,9.45,26.09,10.15,26.09,10.15z"/>
	<path fill="#31CFFF" d="M6,22v4h4c0,0,0,4-4,4s-4-4-4-4S2,22,6,22z"/>
</g>
<path fill="#2D2220" d="M26.8,8.03c-1.41-1.41-2.83-2.83-2.83-2.83s-1.41-1.41-2.83,0l-2.12,2.13L17.61,5.91L14.78,8.74l1.42,1.41
	l-9.19,9.19L7,25h5.66l9.189-9.19l1.42,1.41l2.82-2.82l-1.41-1.42l2.12-2.12C26.8,10.86,28.21,9.45,26.8,8.03z M20.24,16H15.5
	c-0.28,0-0.5,0.22-0.5,0.5s0.22,0.5,0.5,0.5h3.74l-7,7H8v-4.24L10.76,17h2.74c0.28,0,0.5-0.22,0.5-0.5S13.78,16,13.5,16h-1.74
	l5.14-5.14l4.24,4.24L20.24,16z M26.09,10.15l-2.82,2.83l1.41,1.42l-1.41,1.41l-5.079-5.07l-2-2l1.42-1.42l1.409,1.42l2.83-2.83
	c0.71-0.7,1.42,0,1.42,0s1.07,1.07,1.94,1.95c0.04,0.03,0.06,0.05,0.06,0.05s0.16,0.16,0.4,0.41c0.05,0.04,0.1,0.09,0.13,0.13
	c0.04,0.04,0.09,0.09,0.141,0.14C26,8.64,26.05,8.7,26.09,8.74C26.8,9.45,26.09,10.15,26.09,10.15z"/>
</svg>
