<?xml version="1.0" encoding="utf-8"?>
<!-- Generator: Adobe Illustrator 16.0.0, SVG Export Plug-In . SVG Version: 6.00 Build 0)  -->
<!DOCTYPE svg PUBLIC "-//W3C//DTD SVG 1.1//EN" "http://www.w3.org/Graphics/SVG/1.1/DTD/svg11.dtd">
<svg version="1.1" id="Capa_1" xmlns="http://www.w3.org/2000/svg" xmlns:xlink="http://www.w3.org/1999/xlink" x="0px" y="0px"
	 width="32px" height="32px" viewBox="0 0 32 32" enable-background="new 0 0 32 32" xml:space="preserve">
<g>
	<path fill="#E371FF" d="M26.79,18.11C26.46,17.45,25.78,17,25,17c-0.17,0-0.34,0.02-0.5,0.07c0.8,0.199,1.4,0.89,1.48,1.729
		C26,18.86,26,18.93,26,19v1.55C26.35,19.78,26.62,18.96,26.79,18.11z M17,4c-0.17,0-0.33,0-0.5,0.02
		c5.92,0.23,10.74,4.76,11.41,10.57c0.02,0.18,0.04,0.37,0.05,0.56C27.99,15.43,28,15.71,28,16c0,0.2-0.01,0.4-0.02,0.6
		c-0.011,0.2-0.03,0.4-0.051,0.6c-0.04,0.33-0.09,0.649-0.16,0.97c-0.289,1.61-0.899,3.1-1.77,4.42V26c0,0.07,0,0.14-0.02,0.2
		c-0.08,0.84-0.681,1.53-1.48,1.729C24.66,27.98,24.83,28,25,28c1.1,0,2-0.9,2-2v-3.41c1.25-1.89,2-4.149,2-6.59
		C29,9.37,23.63,4,17,4z M16.43,5.01C16.29,5,16.14,5,16,5C10.39,5,5.77,9.18,5.09,14.59v0.03c-0.02,0.18-0.04,0.35-0.05,0.53
		C5.01,15.43,5,15.71,5,16c0,0.2,0.01,0.4,0.02,0.6c0.01,0.2,0.03,0.4,0.05,0.6C5.2,18.38,5.53,19.51,6,20.55V19
		c0-0.32,0.07-0.62,0.21-0.89C6.07,17.43,6,16.72,6,16C6,10.11,10.62,5.31,16.43,5.01z M9,17c-0.17,0-0.34,0.02-0.5,0.07
		c0.8,0.199,1.4,0.89,1.48,1.729C10,18.86,10,18.93,10,19v7c0,0.07,0,0.14-0.02,0.2C9.9,27.04,9.3,27.73,8.5,27.93
		C8.66,27.98,8.83,28,9,28c1.1,0,2-0.9,2-2v-7C11,17.9,10.1,17,9,17z"/>
</g>
<path fill="#31CFFF" d="M9,19v7c0,0.37-0.2,0.69-0.5,0.86C8.35,26.95,8.18,27,8,27v-9c0.18,0,0.35,0.05,0.5,0.14
	C8.8,18.31,9,18.63,9,19z"/>
<path fill="#31CFFF" d="M25,19v7c0,0.37-0.2,0.69-0.5,0.86C24.35,26.95,24.18,27,24,27v-9c0.18,0,0.35,0.05,0.5,0.14
	C24.8,18.31,25,18.63,25,19z"/>
<g>
	<path fill="#2D2220" d="M16,4C9.373,4,4,9.373,4,16c0,2.439,0.746,4.695,2,6.588V26c0,1.104,0.896,2,2,2s2-0.896,2-2v-7
		c0-1.104-0.896-2-2-2s-2,0.896-2,2v1.546C5.365,19.16,5,17.625,5,16C5,9.925,9.925,5,16,5s11,4.925,11,11
		c0,1.625-0.365,3.16-1,4.546V19c0-1.104-0.896-2-2-2s-2,0.896-2,2v7c0,1.104,0.896,2,2,2s2-0.896,2-2v-3.412
		c1.254-1.893,2-4.148,2-6.588C28,9.373,22.627,4,16,4z M7,19c0-0.553,0.448-1,1-1s1,0.447,1,1v7c0,0.553-0.448,1-1,1s-1-0.447-1-1
		V19z M25,26c0,0.553-0.447,1-1,1s-1-0.447-1-1v-7c0-0.553,0.447-1,1-1s1,0.447,1,1V26z"/>
</g>
</svg>
