<?xml version="1.0" encoding="utf-8"?>
<!-- Generator: Adobe Illustrator 16.0.0, SVG Export Plug-In . SVG Version: 6.00 Build 0)  -->
<!DOCTYPE svg PUBLIC "-//W3C//DTD SVG 1.1//EN" "http://www.w3.org/Graphics/SVG/1.1/DTD/svg11.dtd">
<svg version="1.1" id="Capa_1" xmlns="http://www.w3.org/2000/svg" xmlns:xlink="http://www.w3.org/1999/xlink" x="0px" y="0px"
	 width="32px" height="32px" viewBox="0 0 32 32" enable-background="new 0 0 32 32" xml:space="preserve">
<path fill="#5FFFBA" d="M8,8v17h18V8H8z M21,12H11c0,0-1,0-1-1c0,0,0-1,1-1s10,0,10,0s1,0,1,1S21,12,21,12z"/>
<path fill="#FFD561" d="M26,26c0,0,0,2-2,2c-4.75,0-11,0-11,0s-2,0-2-2H26z"/>
<path fill="#FFD561" d="M26,6H11c0,0,0-2,2-2h11C24,4,26,4,26,6z"/>
<path fill="#2D2220" d="M21,9H11c-1.3,0-2,1.03-2,2c0,1.3,1.03,2,2,2h10c0.97,0,2-0.7,2-2S21.97,9,21,9z M11,12c0,0-1,0-1-1
	c0,0,0-1,1-1h3c2.97,0,7,0,7,0s1,0,1,1s-1,1-1,1H11z"/>
<path fill="#FFD561" d="M22,11c0,1-1,1-1,1h-7c-0.55,0-1-0.45-1-1s0.45-1,1-1c2.97,0,7,0,7,0S22,10,22,11z"/>
<path fill="#2D2220" d="M26.5,17c0.28,0,0.5-0.221,0.5-0.5V6c0-2.2-1.79-3-3-3H8C5.8,3,5,4.79,5,6v20c0,2.2,1.79,3,3,3h16
	c2.2,0,3-1.79,3-3v-7.5c0-0.28-0.22-0.5-0.5-0.5S26,18.22,26,18.5V26c0,0,0,2-2,2S8,28,8,28s-2,0-2-2h16.5c0.28,0,0.5-0.22,0.5-0.5
	S22.78,25,22.5,25H6V7h20v9.5C26,16.779,26.22,17,26.5,17z M6,6c0,0,0-2,2-2s16,0,16,0s2,0,2,2H6z"/>
<path fill="#2D2220" d="M19,14.5c0-0.276-0.224-0.5-0.5-0.5h-9C9.224,14,9,14.224,9,14.5l0,0C9,14.776,9.224,15,9.5,15h9
	C18.776,15,19,14.776,19,14.5L19,14.5z"/>
<path fill="#2D2220" d="M23,14.5c0-0.276-0.224-0.5-0.5-0.5h-2c-0.276,0-0.5,0.224-0.5,0.5l0,0c0,0.276,0.224,0.5,0.5,0.5h2
	C22.776,15,23,14.776,23,14.5L23,14.5z"/>
</svg>
