<?xml version="1.0" encoding="utf-8"?>
<!-- Generator: Adobe Illustrator 16.0.0, SVG Export Plug-In . SVG Version: 6.00 Build 0)  -->
<!DOCTYPE svg PUBLIC "-//W3C//DTD SVG 1.1//EN" "http://www.w3.org/Graphics/SVG/1.1/DTD/svg11.dtd">
<svg version="1.1" id="Capa_1" xmlns="http://www.w3.org/2000/svg" xmlns:xlink="http://www.w3.org/1999/xlink" x="0px" y="0px"
	 width="32px" height="32px" viewBox="0 0 32 32" enable-background="new 0 0 32 32" xml:space="preserve">
<path fill="#FFD561" d="M28,26L5,6v20h2v-2h1v2h2v-2h1v2h2v-2h1v2h2v-2h1v2h2v-2h1v2h2v-2h1v2h2v-1h1v1H28z M8.12,12.18
	c0.17-0.21,0.49-0.24,0.7-0.06l2.5,2.08c0.21,0.18,0.24,0.49,0.07,0.7c-0.1,0.12-0.25,0.18-0.39,0.18c-0.11,0-0.23-0.03-0.32-0.11
	l-2.5-2.09C7.97,12.71,7.94,12.39,8.12,12.18z M8,22v-6.22L15.35,22H8z M20.88,22.82C20.79,22.94,20.64,23,20.5,23
	c-0.11,0-0.23-0.04-0.32-0.12l-6.77-5.64c-0.21-0.17-0.24-0.49-0.06-0.7c0.17-0.21,0.49-0.24,0.7-0.07l6.771,5.65
	C21.03,22.29,21.06,22.61,20.88,22.82z"/>
<g>
	<path fill="#2D2220" d="M7,13.62V23h11.08L7,13.62z M8,15.78L15.35,22H8V15.78z"/>
</g>
<path fill="#2D2220" d="M28.64,25.23l-24-20C4.46,5.08,4.23,5,4,5C3.86,5,3.71,5.03,3.58,5.09C3.23,5.26,3,5.61,3,6v20
	c0,0.55,0.45,1,1,1h24c0.42,0,0.8-0.26,0.94-0.66C29.08,25.95,28.96,25.5,28.64,25.23z M25,26v-1h-1v1h-2v-1h-1v1h-2v-1h-1v1h-2v-1
	h-1v1h-2v-1h-1v1h-2v-1H9v1H7v-1H6v1H4V6l24,20H25z"/>
</svg>
