<?xml version="1.0" encoding="utf-8"?>
<!-- Generator: Adobe Illustrator 16.0.0, SVG Export Plug-In . SVG Version: 6.00 Build 0)  -->
<!DOCTYPE svg PUBLIC "-//W3C//DTD SVG 1.1//EN" "http://www.w3.org/Graphics/SVG/1.1/DTD/svg11.dtd">
<svg version="1.1" id="Capa_1" xmlns="http://www.w3.org/2000/svg" xmlns:xlink="http://www.w3.org/1999/xlink" x="0px" y="0px"
	 width="32px" height="32px" viewBox="0 0 32 32" enable-background="new 0 0 32 32" xml:space="preserve">
<g>
	<g>
		<path fill="#FF8164" d="M4.09,14.44c0.18-0.62,0.65-1.12,1.25-1.33C5.32,13.08,5.3,13.03,5.29,13h4.33c0.5,0,0.5-1,0-1H6
			c-0.42,0-0.78-0.24-0.93-0.61C5.23,10.71,5.66,10.15,6.35,10h4.271c0.5,0,0.5-1,0-1h-4C6.6,9,6.21,9.01,6.06,8.49V8.48
			C6.45,7.72,7.56,7.16,8.44,7.01C9.19,6.88,9.34,6.76,9.95,6.64c1.49-0.279,3.14-0.529,5.2-0.609C15.26,6.02,15.38,6.02,15.5,6.02
			h0.029c3.48,0.011,5.471,2,5.471,2v7.5c0,0-0.51,1.49-2.5,4.5c-2.439,3.681-2.5,1.01-4.81,7.33c-0.14,0.391-0.4,0.74-0.87,0.711
			c-0.391-0.031-0.71-0.281-0.79-0.61c0.109-1.75,0.439-3.28,1-4.44c0.35-0.74,0.69-1.439,0.88-2.189c0.08-0.34,0.06-0.561,0-0.631
			c-0.01-0.01-0.03-0.029-0.05-0.039c0.01-0.021,0.01-0.051,0.02-0.07c0.28-1.13-0.09-2.061-1.82-2.061H5
			c-0.41,0-0.76-0.25-0.91-0.6C4.19,17.061,4.4,16.74,4.68,16.5c-0.1-0.09-0.189-0.18-0.26-0.29C4.58,16.09,4.78,16,5,16h4.62
			c0.5,0,0.5-1,0-1H5C4.6,15,4.25,14.78,4.09,14.44z"/>
	</g>
	<path fill="#DC4DFF" d="M23,17.5c0,0.276,0.224,0.5,0.5,0.5l0,0c0.276,0,0.5-0.224,0.5-0.5v-8C24,9.224,23.776,9,23.5,9l0,0
		C23.224,9,23,9.224,23,9.5V17.5z"/>
	<path fill="#2D2220" d="M4.68,16.5C4.26,16.13,4,15.6,4,15.01c0-0.859,0.56-1.63,1.34-1.899C5.12,12.79,5,12.41,5,12
		c0-0.97,0.47-1.8,1.38-1.99C6,10.01,5.87,9.3,5.95,8.83C6.11,7.89,7.43,7.18,8.44,7.01C9.19,6.88,9.34,6.76,9.95,6.64
		C11.75,6.3,13.79,6,16.5,6c3.87,0,6.109,2.19,6.21,2.29L23,8.58v8.08l-0.05,0.16c-0.03,0.069-0.63,1.619-2.62,4.729
		c-2.67,4.181-2.359,0.931-4.67,7.05c-0.32,0.871-0.94,1.44-1.78,1.44l-0.12-0.011c-1.01-0.059-1.79-0.869-1.76-1.84
		c0.05-2.06,0.39-3.859,1.03-5.18c0.35-0.74,0.69-1.439,0.88-2.189c0.08-0.34,0.06-0.561,0-0.631C13.85,20.12,13.61,20,13.06,20H9.5
		C9.22,20,9,19.779,9,19.5S9.22,19,9.5,19h3.56c1.73,0,2.1,0.93,1.82,2.061c-0.57,2.279-1.81,4.41-1.88,7.16
		c-0.02,0.42,0.35,0.789,0.82,0.819c0.47,0.03,0.73-0.319,0.87-0.71C17,22.01,17.061,24.68,19.5,21c1.99-3.01,2.5-4.5,2.5-4.5V9
		c0,0-2-2-5.5-2s-4.9,0.5-7.9,1C8.06,8.09,7,8.44,7,9c0,0.99,0.6,1,0.62,1h2c0.5,0,0.5,1,0,1H7c-0.55,0-1,0.44-1,1
		c0,0.55,0.45,1,1,1h1.62c0.5,0,0.5,1,0,1H6c-0.55,0-1,0.46-1,1.01S5.45,16,6,16h2.62c0.5,0,0.5,1,0,1H6c-0.55,0-1,0.439-1,1
		c0,0.55,0.45,1,1,1h1.5C7.78,19,8,19.221,8,19.5S7.78,20,7.5,20H6c-1.1,0-2-0.9-2-2C4,17.4,4.26,16.86,4.68,16.5z"/>
	<path fill="#2D2220" d="M9,19.5C9,19.776,9.224,20,9.5,20l0,0c0.276,0,0.5-0.224,0.5-0.5l0,0c0-0.276-0.224-0.5-0.5-0.5l0,0
		C9.224,19,9,19.224,9,19.5L9,19.5z"/>
	<path fill="#2D2220" d="M24,8.5C24,8.224,24.224,8,24.5,8l0,0C24.776,8,25,8.224,25,8.5v4c0,0.276-0.224,0.5-0.5,0.5l0,0
		c-0.276,0-0.5-0.224-0.5-0.5V8.5z"/>
	<path fill="#2D2220" d="M24,16.5c0,0.276,0.224,0.5,0.5,0.5l0,0c0.276,0,0.5-0.224,0.5-0.5v-2c0-0.276-0.224-0.5-0.5-0.5l0,0
		c-0.276,0-0.5,0.224-0.5,0.5V16.5z"/>
</g>
</svg>
