<?xml version="1.0" encoding="utf-8"?>
<!-- Generator: Adobe Illustrator 16.0.0, SVG Export Plug-In . SVG Version: 6.00 Build 0)  -->
<!DOCTYPE svg PUBLIC "-//W3C//DTD SVG 1.1//EN" "http://www.w3.org/Graphics/SVG/1.1/DTD/svg11.dtd">
<svg version="1.1" id="Capa_1" xmlns="http://www.w3.org/2000/svg" xmlns:xlink="http://www.w3.org/1999/xlink" x="0px" y="0px"
	 width="32px" height="32px" viewBox="0 0 32 32" enable-background="new 0 0 32 32" xml:space="preserve">
<g>
	<path fill="#FFD561" d="M25.91,19.56c-0.18,0.62-0.65,1.12-1.25,1.33c0.02,0.03,0.04,0.08,0.05,0.11h-4.33c-0.5,0-0.5,1,0,1H24
		c0.42,0,0.78,0.24,0.93,0.61c-0.16,0.68-0.59,1.239-1.279,1.39H19.38c-0.5,0-0.5,1,0,1h4c0.021,0,0.41-0.01,0.561,0.51v0.01
		c-0.391,0.761-1.5,1.32-2.381,1.471c-0.75,0.13-0.899,0.25-1.51,0.37c-1.49,0.279-3.14,0.529-5.2,0.609
		c-0.11,0.011-0.23,0.011-0.35,0.011h-0.03c-3.48-0.011-5.47-2-5.47-2v-7.5c0,0,0.51-1.49,2.5-4.5c2.44-3.68,2.5-1.01,4.81-7.33
		c0.14-0.39,0.4-0.74,0.87-0.71c0.391,0.03,0.71,0.28,0.79,0.61c-0.109,1.75-0.439,3.28-1,4.44c-0.35,0.74-0.69,1.44-0.88,2.19
		c-0.08,0.34-0.06,0.56,0,0.63c0.01,0.01,0.03,0.03,0.05,0.04c-0.01,0.02-0.01,0.05-0.02,0.07c-0.28,1.13,0.09,2.06,1.82,2.06H25
		c0.41,0,0.76,0.25,0.91,0.6c-0.101,0.36-0.311,0.68-0.59,0.92c0.1,0.09,0.189,0.18,0.26,0.29C25.42,17.91,25.22,18,25,18h-4.62
		c-0.5,0-0.5,1,0,1H25C25.4,19,25.75,19.22,25.91,19.56z"/>
</g>
<path fill="#5FFFBA" d="M7,18.5C7,18.224,6.776,18,6.5,18l0,0C6.224,18,6,18.224,6,18.5v8C6,26.776,6.224,27,6.5,27l0,0
	C6.776,27,7,26.776,7,26.5V18.5z"/>
<path fill="#2D2220" d="M25.32,17.5c0.42,0.37,0.68,0.9,0.68,1.49c0,0.859-0.56,1.63-1.34,1.899C24.88,21.21,25,21.59,25,22
	c0,0.97-0.47,1.8-1.38,1.99c0.38,0,0.51,0.71,0.43,1.18c-0.16,0.94-1.479,1.65-2.49,1.82c-0.75,0.13-0.899,0.25-1.51,0.37
	C18.25,27.7,16.21,28,13.5,28c-3.87,0-6.11-2.19-6.21-2.29L7,25.42v-8.08l0.05-0.16c0.03-0.069,0.63-1.62,2.62-4.729
	c2.67-4.18,2.36-0.93,4.67-7.05c0.32-0.87,0.94-1.44,1.78-1.44l0.12,0.01c1.01,0.06,1.79,0.87,1.76,1.84
	c-0.05,2.06-0.39,3.86-1.03,5.18c-0.35,0.74-0.69,1.44-0.88,2.19c-0.08,0.34-0.06,0.56,0,0.63S16.39,14,16.94,14h3.56
	c0.28,0,0.5,0.22,0.5,0.5S20.78,15,20.5,15h-3.56c-1.73,0-2.1-0.93-1.82-2.06c0.57-2.28,1.81-4.41,1.88-7.16
	c0.02-0.42-0.35-0.79-0.82-0.82c-0.47-0.03-0.73,0.32-0.87,0.71C13,11.99,12.94,9.32,10.5,13C8.51,16.01,8,17.5,8,17.5V25
	c0,0,2,2,5.5,2s4.9-0.5,7.9-1c0.54-0.09,1.6-0.44,1.6-1c0-0.99-0.6-1-0.62-1h-2c-0.5,0-0.5-1,0-1H23c0.55,0,1-0.44,1-1
	c0-0.55-0.45-1-1-1h-1.62c-0.5,0-0.5-1,0-1H24c0.55,0,1-0.46,1-1.01S24.55,18,24,18h-2.62c-0.5,0-0.5-1,0-1H24c0.55,0,1-0.44,1-1
	c0-0.55-0.45-1-1-1h-1.5c-0.28,0-0.5-0.22-0.5-0.5s0.22-0.5,0.5-0.5H24c1.1,0,2,0.9,2,2C26,16.6,25.74,17.14,25.32,17.5z"/>
<path fill="#2D2220" d="M21,14.5c0-0.276-0.224-0.5-0.5-0.5l0,0c-0.276,0-0.5,0.224-0.5,0.5l0,0c0,0.276,0.224,0.5,0.5,0.5l0,0
	C20.776,15,21,14.776,21,14.5L21,14.5z"/>
<path fill="#2D2220" d="M6,21.5C6,21.776,5.776,22,5.5,22l0,0C5.224,22,5,21.776,5,21.5v-4C5,17.224,5.224,17,5.5,17l0,0
	C5.776,17,6,17.224,6,17.5V21.5z"/>
<path fill="#2D2220" d="M6,23.5C6,23.224,5.776,23,5.5,23l0,0C5.224,23,5,23.224,5,23.5v2C5,25.776,5.224,26,5.5,26l0,0
	C5.776,26,6,25.776,6,25.5V23.5z"/>
</svg>
