<?xml version="1.0" encoding="utf-8"?>
<!-- Generator: Adobe Illustrator 16.0.0, SVG Export Plug-In . SVG Version: 6.00 Build 0)  -->
<!DOCTYPE svg PUBLIC "-//W3C//DTD SVG 1.1//EN" "http://www.w3.org/Graphics/SVG/1.1/DTD/svg11.dtd">
<svg version="1.1" id="Capa_1" xmlns="http://www.w3.org/2000/svg" xmlns:xlink="http://www.w3.org/1999/xlink" x="0px" y="0px"
	 width="32px" height="32px" viewBox="0 0 32 32" enable-background="new 0 0 32 32" xml:space="preserve">
<g>
	<path fill="#2D2220" d="M16,5.65c1.97,2.65,7,9.84,7,14.35c0,4.97-2.03,7-7,7c-4.97,0-7-2.03-7-7C9,15.49,14.03,8.3,16,5.65
		 M16,4.65c-0.316,0-0.614,0.149-0.803,0.403C12.509,8.668,8,15.418,8,20c0,5.532,2.467,8,8,8c5.532,0,8-2.468,8-8
		c0-4.58-4.51-11.331-7.197-14.947C16.614,4.799,16.316,4.65,16,4.65L16,4.65z"/>
</g>
<g>
	<path fill="#31CFFF" d="M23,20c0,4.97-2.03,7-7,7c-1.75,0-3.13-0.25-4.19-0.81C11.25,25.13,11,23.75,11,22
		c0-4.3,4.57-11.04,6.71-13.95C19.98,11.4,23,16.5,23,20z"/>
</g>
<g>
	<path fill="#2D2220" d="M13.5,25c-0.052,0-0.105-0.008-0.158-0.025C12.186,24.589,10,23.158,10,20.5c0-0.276,0.224-0.5,0.5-0.5
		s0.5,0.224,0.5,0.5c0,2.594,2.551,3.489,2.659,3.526c0.261,0.088,0.402,0.372,0.314,0.633C13.903,24.868,13.708,25,13.5,25z"/>
</g>
<g>
	<path fill="#2D2220" d="M10.5,18.999c-0.001,0-0.002,0-0.002,0C10.222,18.997,10,18.775,10,18.5c0-0.088,0.024-2.187,2.084-5.277
		c0.152-0.229,0.462-0.292,0.693-0.139c0.23,0.153,0.292,0.463,0.139,0.693C11.042,16.589,11,18.483,11,18.503
		C10.997,18.776,10.774,18.999,10.5,18.999z"/>
</g>
<g>
	<path fill="#2D2220" d="M17,24.5c0-0.276-0.224-0.5-0.5-0.5h-1c-0.276,0-0.5,0.224-0.5,0.5l0,0c0,0.276,0.224,0.5,0.5,0.5h1
		C16.776,25,17,24.776,17,24.5L17,24.5z"/>
</g>
</svg>
