<?xml version="1.0" encoding="utf-8"?>
<!-- Generator: Adobe Illustrator 16.0.0, SVG Export Plug-In . SVG Version: 6.00 Build 0)  -->
<!DOCTYPE svg PUBLIC "-//W3C//DTD SVG 1.1//EN" "http://www.w3.org/Graphics/SVG/1.1/DTD/svg11.dtd">
<svg version="1.1" id="Capa_1" xmlns="http://www.w3.org/2000/svg" xmlns:xlink="http://www.w3.org/1999/xlink" x="0px" y="0px"
	 width="32px" height="32px" viewBox="0 0 32 32" enable-background="new 0 0 32 32" xml:space="preserve">
<g>
	<path fill="#2D2220" d="M23.31,22.55c1.7-1.859,2.74-4.33,2.74-7.05c0-5.64-4.46-10.24-10.05-10.49v1c5.04,0.25,9.06,4.4,9.06,9.49
		c0,5.24-4.27,9.5-9.53,9.5c-5.09,0-9.25-3.99-9.51-9h-1c0.26,5.56,4.87,9.99,10.51,9.99c2.72,0,5.201-1.04,7.07-2.73l5.631,5.61
		l0.71-0.7L23.31,22.55z M15,6.01v-1C9.6,5.28,5.28,9.61,5.02,15h1C6.27,10.16,10.15,6.28,15,6.01z"/>
</g>
<path fill="#2D2220" d="M16,7.01v1.01c3.92,0.24,7.05,3.5,7.05,7.48c0,4.14-3.38,7.5-7.52,7.5c-3.98,0-7.25-3.09-7.49-7H7.02
	c0.26,4.47,3.97,8,8.51,8c4.71,0,8.52-3.8,8.52-8.5C24.05,10.97,20.49,7.26,16,7.01z M15,8.03V7.02c-4.3,0.26-7.73,3.7-7.98,7.98
	h1.02C8.27,11.27,11.26,8.28,15,8.03z"/>
<path fill="#31CFFF" d="M23.05,15.5c0,3.45-2.34,6.35-5.52,7.22c-3.18-0.87-5.521-3.77-5.521-7.22s2.34-6.35,5.521-7.22
	C20.71,9.15,23.05,12.05,23.05,15.5z"/>
<path fill="#5FFFBA" d="M15.5,6C10.25,6,6,10.25,6,15.5s4.25,9.5,9.5,9.5s9.5-4.25,9.5-9.5S20.75,6,15.5,6z M15.5,24
	C10.81,24,7,20.19,7,15.5C7,10.81,10.81,7,15.5,7c4.69,0,8.5,3.81,8.5,8.5C24,20.19,20.19,24,15.5,24z"/>
<line fill="none" stroke="#2D2220" stroke-linecap="round" stroke-miterlimit="10" x1="13.5" y1="14.5" x2="18.5" y2="10.5"/>
<line fill="none" stroke="#2D2220" stroke-linecap="round" stroke-miterlimit="10" x1="16.5" y1="14.5" x2="21.5" y2="10.5"/>
</svg>
